<svg xmlns="http://www.w3.org/2000/svg" viewBox="0 0 409.6 409.6"><defs><style>path{fill:#fff}</style></defs><title>icon-phone</title><g id="Слой_2" data-name="Слой 2"><g id="Слой_1-2" data-name="Слой 1"><path d="M204.8,0C91.7,0,0,91.7,0,204.8S91.7,409.6,204.8,409.6s204.8-91.7,204.8-204.8S317.9,0,204.8,0ZM312.95,298.82l-16.4,16.4c-2.93,2.92-11.5,4.75-11.78,4.75A193.41,193.41,0,0,1,89.6,124.35s1.88-8.35,4.8-11.25l16.4-16.4c6-6,17.52-8.75,25.6-6.05l3.45,1.15c8.05,2.7,16.5,11.6,18.72,19.8l8.25,30.27c2.23,8.23-.77,19.93-6.77,25.93L149.1,178.75a116.29,116.29,0,0,0,81.77,81.8l10.95-10.95c6-6,17.73-9,25.93-6.8L298,251.07c8.2,2.25,17.1,10.65,19.8,18.7l1.15,3.5c2.68,8.05,0,19.58-6,25.55Zm0,0"/></g></g></svg>