<svg xmlns="http://www.w3.org/2000/svg" xmlns:xlink="http://www.w3.org/1999/xlink" viewBox="0 0 51.2 36.14"><defs><style>.cls-1{fill:none;}.cls-2{clip-path:url(#clip-path);}path{fill:#fff}</style><clipPath id="clip-path" transform="translate(0 -0.82)"><rect class="cls-1" width="51.84" height="37.92"/></clipPath></defs><title>Ресурс 1</title><g id="Слой_2" data-name="Слой 2"><g id="Слой_1-2" data-name="Слой 1"><g class="cls-2"><path d="M11.35.82a11.36,11.36,0,0,0-.66,22.69c.1,1.11,0,4.14-2.88,8.36a.8.8,0,0,0,.09,1c1.19,1.19,1.92,1.93,2.44,2.46.67.69,1,1,1.43,1.41a.8.8,0,0,0,.54.21.82.82,0,0,0,.53-.2,30.66,30.66,0,0,0,9.87-24.65C22.23,5.57,17.46.82,11.35.82Zm1,34.25-.83-.84-2-2c3.53-5.43,2.86-9.3,2.57-9.85a.83.83,0,0,0-.72-.44,9.75,9.75,0,0,1,0-19.51c5.24,0,9.34,4.13,9.75,9.81a29.24,29.24,0,0,1-8.79,22.84Zm0,0" transform="translate(0 -0.82)"/><path d="M51.12,12.12C50.64,5.57,45.87.82,39.77.82a11.35,11.35,0,0,0-.66,22.69c.1,1.11,0,4.14-2.88,8.36a.8.8,0,0,0,.09,1l2.43,2.45c.68.69,1,1,1.43,1.41a.81.81,0,0,0,.54.21.8.8,0,0,0,.52-.2,30.65,30.65,0,0,0,9.87-24.65Zm-10.39,23-.84-.85-2-2c3.52-5.43,2.86-9.3,2.57-9.85a.82.82,0,0,0-.72-.44,9.75,9.75,0,0,1,0-19.51c5.24,0,9.34,4.13,9.76,9.81h0a29.25,29.25,0,0,1-8.79,22.84Zm0,0" transform="translate(0 -0.82)"/></g></g></g></svg>